<mxfile host="app.diagrams.net" modified="2023-01-02T03:12:31.059Z" agent="5.0 (Windows NT 10.0; Win64; x64) AppleWebKit/537.36 (KHTML, like Gecko) Chrome/108.0.0.0 Safari/537.36" etag="RfA0EKODuPetAcYtfLJ2" version="20.7.4" type="github">
  <diagram name="Page-1" id="c7558073-3199-34d8-9f00-42111426c3f3">
    <mxGraphModel dx="1018" dy="489" grid="1" gridSize="10" guides="1" tooltips="1" connect="1" arrows="1" fold="1" page="1" pageScale="1" pageWidth="826" pageHeight="1169" background="none" math="0" shadow="0">
      <root>
        <mxCell id="0" />
        <mxCell id="1" parent="0" />
        <mxCell id="H-TligfiRVoKvnowu4Hb-101" value="" style="rounded=0;orthogonalLoop=1;jettySize=auto;html=1;startArrow=oval;startFill=1;strokeWidth=2;endArrow=block;endFill=1;" edge="1" parent="1" source="H-TligfiRVoKvnowu4Hb-96" target="H-TligfiRVoKvnowu4Hb-100">
          <mxGeometry relative="1" as="geometry" />
        </mxCell>
        <mxCell id="H-TligfiRVoKvnowu4Hb-96" value="&lt;p style=&quot;margin: 0px; margin-left: 8px;&quot;&gt;&lt;br&gt;&lt;/p&gt;" style="verticalAlign=middle;align=center;overflow=fill;fontSize=12;fontFamily=Helvetica;html=1;rounded=1;fontStyle=1;strokeWidth=3;fillColor=none;strokeColor=#000000;" vertex="1" parent="1">
          <mxGeometry x="70" y="104" width="110" height="90" as="geometry" />
        </mxCell>
        <mxCell id="H-TligfiRVoKvnowu4Hb-99" value="定时任务" style="text;html=1;align=center;verticalAlign=middle;resizable=0;points=[];autosize=1;strokeColor=none;fillColor=none;" vertex="1" parent="1">
          <mxGeometry x="90" y="204" width="70" height="30" as="geometry" />
        </mxCell>
        <mxCell id="H-TligfiRVoKvnowu4Hb-104" value="" style="edgeStyle=orthogonalEdgeStyle;rounded=0;orthogonalLoop=1;jettySize=auto;html=1;startArrow=oval;startFill=1;strokeWidth=2;endArrow=block;endFill=1;" edge="1" parent="1" source="H-TligfiRVoKvnowu4Hb-100" target="H-TligfiRVoKvnowu4Hb-103">
          <mxGeometry relative="1" as="geometry" />
        </mxCell>
        <mxCell id="H-TligfiRVoKvnowu4Hb-100" value="&lt;p style=&quot;margin: 0px; margin-left: 8px;&quot;&gt;&lt;br&gt;&lt;/p&gt;" style="verticalAlign=middle;align=center;overflow=fill;fontSize=12;fontFamily=Helvetica;html=1;rounded=1;fontStyle=1;strokeWidth=3;fillColor=none;" vertex="1" parent="1">
          <mxGeometry x="260" y="104" width="110" height="90" as="geometry" />
        </mxCell>
        <mxCell id="H-TligfiRVoKvnowu4Hb-102" value="网页更新检测" style="text;html=1;align=center;verticalAlign=middle;resizable=0;points=[];autosize=1;strokeColor=none;fillColor=none;" vertex="1" parent="1">
          <mxGeometry x="265" y="204" width="100" height="30" as="geometry" />
        </mxCell>
        <mxCell id="H-TligfiRVoKvnowu4Hb-109" value="" style="edgeStyle=orthogonalEdgeStyle;curved=1;orthogonalLoop=1;jettySize=auto;html=1;startArrow=oval;startFill=1;strokeWidth=2;endArrow=block;endFill=1;" edge="1" parent="1" source="H-TligfiRVoKvnowu4Hb-103" target="H-TligfiRVoKvnowu4Hb-108">
          <mxGeometry relative="1" as="geometry" />
        </mxCell>
        <mxCell id="H-TligfiRVoKvnowu4Hb-103" value="&lt;p style=&quot;margin: 0px; margin-left: 8px;&quot;&gt;&lt;br&gt;&lt;/p&gt;" style="verticalAlign=middle;align=center;overflow=fill;fontSize=12;fontFamily=Helvetica;html=1;rounded=1;fontStyle=1;strokeWidth=3;fillColor=none;" vertex="1" parent="1">
          <mxGeometry x="450" y="104" width="110" height="90" as="geometry" />
        </mxCell>
        <mxCell id="H-TligfiRVoKvnowu4Hb-105" value="&lt;p style=&quot;line-height: 100%;&quot;&gt;判断&lt;br&gt;&lt;/p&gt;" style="text;html=1;align=center;verticalAlign=middle;resizable=0;points=[];autosize=1;strokeColor=none;fillColor=none;" vertex="1" parent="1">
          <mxGeometry x="480" y="194" width="50" height="50" as="geometry" />
        </mxCell>
        <mxCell id="H-TligfiRVoKvnowu4Hb-108" value="&lt;p style=&quot;margin: 0px; margin-left: 8px;&quot;&gt;&lt;br&gt;&lt;/p&gt;" style="verticalAlign=middle;align=center;overflow=fill;fontSize=12;fontFamily=Helvetica;html=1;rounded=1;fontStyle=1;strokeWidth=3;fillColor=none;" vertex="1" parent="1">
          <mxGeometry x="640" y="104" width="110" height="90" as="geometry" />
        </mxCell>
        <mxCell id="H-TligfiRVoKvnowu4Hb-110" value="是" style="text;html=1;align=center;verticalAlign=middle;resizable=0;points=[];autosize=1;strokeColor=none;fillColor=none;" vertex="1" parent="1">
          <mxGeometry x="550" y="124" width="40" height="30" as="geometry" />
        </mxCell>
        <mxCell id="H-TligfiRVoKvnowu4Hb-111" value="推送至微信" style="text;html=1;align=center;verticalAlign=middle;resizable=0;points=[];autosize=1;strokeColor=none;fillColor=none;" vertex="1" parent="1">
          <mxGeometry x="660" y="204" width="80" height="30" as="geometry" />
        </mxCell>
        <mxCell id="H-TligfiRVoKvnowu4Hb-113" value="" style="shape=image;imageAspect=0;aspect=fixed;verticalLabelPosition=bottom;verticalAlign=top;strokeColor=#000000;fillColor=none;image=data:image/svg+xml,PHN2ZyB4bWxuczp4bGluaz0iaHR0cDovL3d3dy53My5vcmcvMTk5OS94bGluayIgeG1sbnM9Imh0dHA6Ly93d3cudzMub3JnLzIwMDAvc3ZnIiBoZWlnaHQ9IjIwMCIgd2lkdGg9IjIwMCIgdmVyc2lvbj0iMS4xIiB2aWV3Qm94PSIwIDAgMTAyNCAxMDI0IiBjbGFzcz0iaWNvbiI+PHBhdGggZD0iTTY0MCA0Mi42NjY2NjdIMzg0djg1LjMzMzMzM2gyNTZWNDIuNjY2NjY3eiBtLTE3MC42NjY2NjcgNTU0LjY2NjY2Nmg4NS4zMzMzMzRWMzQxLjMzMzMzM2gtODUuMzMzMzM0djI1NnogbTM0Mi42MTMzMzQtMjgyLjAyNjY2Nmw2MC41ODY2NjYtNjAuNTg2NjY3Yy0xOC4zNDY2NjctMjEuNzYtMzguNC00Mi4yNC02MC4xNi02MC4xNmwtNjAuNTg2NjY2IDYwLjU4NjY2N0EzODIuMzc4NjY3IDM4Mi4zNzg2NjcgMCAwIDAgNTEyIDE3MC42NjY2NjdjLTIxMi4wNTMzMzMgMC0zODQgMTcxLjk0NjY2Ny0zODQgMzg0czE3MS41MiAzODQgMzg0IDM4NGEzODMuNzQ0IDM4My43NDQgMCAwIDAgMjk5Ljk0NjY2Ny02MjMuMzZ6TTUxMiA4NTMuMzMzMzMzYy0xNjUuMTIgMC0yOTguNjY2NjY3LTEzMy41NDY2NjctMjk4LjY2NjY2Ny0yOTguNjY2NjY2czEzMy41NDY2NjctMjk4LjY2NjY2NyAyOTguNjY2NjY3LTI5OC42NjY2NjcgMjk4LjY2NjY2NyAxMzMuNTQ2NjY3IDI5OC42NjY2NjcgMjk4LjY2NjY2Ny0xMzMuNTQ2NjY3IDI5OC42NjY2NjctMjk4LjY2NjY2NyAyOTguNjY2NjY2eiIvPjwvc3ZnPg==;" vertex="1" parent="1">
          <mxGeometry x="95" y="119" width="60" height="60" as="geometry" />
        </mxCell>
        <mxCell id="H-TligfiRVoKvnowu4Hb-114" value="" style="shape=image;imageAspect=0;aspect=fixed;verticalLabelPosition=bottom;verticalAlign=top;strokeColor=#000000;fillColor=none;image=data:image/svg+xml,PHN2ZyB4bWxuczp4bGluaz0iaHR0cDovL3d3dy53My5vcmcvMTk5OS94bGluayIgeG1sbnM9Imh0dHA6Ly93d3cudzMub3JnLzIwMDAvc3ZnIiBoZWlnaHQ9IjIwMCIgd2lkdGg9IjIwMCIgZGF0YS1zcG0tYW5jaG9yLWlkPSJhMzEzeC43NzgxMDY5LjAuaTEiIHZlcnNpb249IjEuMSIgdmlld0JveD0iMCAwIDEwMjQgMTAyNCIgY2xhc3M9Imljb24iPjxwYXRoIGRhdGEtc3BtLWFuY2hvci1pZD0iYTMxM3guNzc4MTA2OS4wLmkwIiBkPSJNMzg0LjQyNjY2NyA1OTcuMzMzMzMzSDg1LjMzMzMzM3Y4NS4zMzMzMzRoMjk5LjA5MzMzNHYxMjhMNTU0LjY2NjY2NyA2NDBsLTE3MC4yNC0xNzAuNjY2NjY3djEyOHogbTI1NS4xNDY2NjYtNDIuNjY2NjY2di0xMjhIOTM4LjY2NjY2N1YzNDEuMzMzMzMzaC0yOTkuMDkzMzM0VjIxMy4zMzMzMzNMNDY5LjMzMzMzMyAzODRsMTcwLjI0IDE3MC42NjY2Njd6Ii8+PC9zdmc+;" vertex="1" parent="1">
          <mxGeometry x="475" y="119" width="60" height="60" as="geometry" />
        </mxCell>
        <mxCell id="H-TligfiRVoKvnowu4Hb-116" value="" style="shape=image;imageAspect=0;aspect=fixed;verticalLabelPosition=bottom;verticalAlign=top;strokeColor=#000000;fillColor=none;image=data:image/svg+xml,PHN2ZyB4bWxuczp4bGluaz0iaHR0cDovL3d3dy53My5vcmcvMTk5OS94bGluayIgeG1sbnM9Imh0dHA6Ly93d3cudzMub3JnLzIwMDAvc3ZnIiBoZWlnaHQ9IjIwMCIgd2lkdGg9IjIwMCIgdmVyc2lvbj0iMS4xIiB2aWV3Qm94PSIwIDAgMTAyNCAxMDI0IiBjbGFzcz0iaWNvbiI+PHBhdGggZmlsbD0iIzI2MjYyNiIgZD0iTTUxMiAxMDI0QTUxMiA1MTIgMCAxIDEgNTEyIDBhNTEyIDUxMiAwIDAgMSAwIDEwMjR6IG0zLjAwOC05Mi45OTJhNDE2IDQxNiAwIDEgMCAwLTgzMiA0MTYgNDE2IDAgMCAwIDAgODMyek00NDggMTkyaDEyOHYzODRINDQ4VjE5MnogbTAgNTEyaDEyOHYxMjhINDQ4di0xMjh6Ii8+PC9zdmc+;" vertex="1" parent="1">
          <mxGeometry x="292.34999999999997" y="126.34999999999998" width="45.31" height="45.31" as="geometry" />
        </mxCell>
        <mxCell id="H-TligfiRVoKvnowu4Hb-117" value="" style="shape=image;verticalLabelPosition=bottom;labelBackgroundColor=default;verticalAlign=top;aspect=fixed;imageAspect=0;image=data:image/svg+xml,PHN2ZyB4bWxuczp4bGluaz0iaHR0cDovL3d3dy53My5vcmcvMTk5OS94bGluayIgeG1sbnM9Imh0dHA6Ly93d3cudzMub3JnLzIwMDAvc3ZnIiBoZWlnaHQ9IjIwMCIgd2lkdGg9IjIwMCIgdmVyc2lvbj0iMS4xIiB2aWV3Qm94PSIwIDAgMTAyNCAxMDI0IiBjbGFzcz0iaWNvbiI+PHBhdGggZmlsbD0iIzJEMzMzQSIgZD0iTTk5Ni40Mjc3NzYgNjIzLjg1MzU2OGMwLTEzOS4zNTQxMTItMTM4LjA2Mzg3Mi0yNTEuODE1OTM2LTI5MS44NzA3Mi0yNTEuODE1OTM2LTE2Mi4yODE0NzIgMC0yOTAuNjU2MjU2IDExMi40NjE4MjQtMjkwLjY1NjI1NiAyNTEuODE1OTM2IDAgMTM5LjM1MjA2NCAxMjguMzc0Nzg0IDI1MS44MDc3NDQgMjkwLjY1NjI1NiAyNTEuODA3NzQ0IDM1LjExOTEwNCAwIDY5LjAzMTkzNi0xMS4wMDE4NTYgMTA0LjE0ODk5Mi0xOC4zMzE2NDhsOTIuMDQzMjY0IDUyLjU1OTg3Mi0yNC4yMTc2LTg4LjAxNDg0OGM2Ny44MjE1NjgtNTAuMTIyNzUyIDExOS44OTYwNjQtMTE5Ljc5MTYxNiAxMTkuODk2MDY0LTE5OC4wMjExMnogbS0zODYuMzM4ODE2LTQ1LjI0MDMyYy0xNi45NTc0NCAwLTMzLjkwNjY4OC0xNS44OTA0MzItMzMuOTA2Njg4LTMxLjc3NDcyIDAtMTkuNTYyNDk2IDE2Ljk1NzQ0LTM1LjQ0Njc4NCAzMy45MDY2ODgtMzUuNDQ2Nzg0IDI1LjQzODIwOCAwIDQzLjU5OTg3MiAxNS44OTA0MzIgNDMuNTk5ODcyIDM1LjQ0Njc4NCAwLjAwMjA0OCAxNS44ODQyODgtMTguMTYxNjY0IDMxLjc3NDcyLTQzLjU5OTg3MiAzMS43NzQ3MnogbTE5MC4xNDQ1MTIgMGMtMTguMTY3ODA4IDAtMzMuOTEwNzg0LTE1Ljg5MDQzMi0zMy45MTA3ODQtMzEuNzc0NzIgMC0xOS41NjI0OTYgMTUuNzQ1MDI0LTM1LjQ0Njc4NCAzMy45MTA3ODQtMzUuNDQ2Nzg0IDI0LjIxOTY0OCAwIDQyLjM4NzQ1NiAxNS44OTA0MzIgNDIuMzg3NDU2IDM1LjQ0Njc4NCAwIDE1Ljg4NDI4OC0xOC4xNjk4NTYgMzEuNzc0NzItNDIuMzg3NDU2IDMxLjc3NDcyeiIvPjxwYXRoIGZpbGw9IiMyRDMzM0EiIGQ9Ik02ODMuOTcwNTYgMzUyLjQ4MTI4YzkuNjg3MDQgMCAyMC41ODg1NDQgMS4yMTY1MTIgMzIuNzAwNDE2IDMuNjcyMDY0LTI5LjA2MzE2OC0xNDEuODA5NjY0LTE3OC4wMzI2NC0yNDIuMDQ0OTI4LTM0NS4xNTU1ODQtMjQyLjA0NDkyOC0xODguOTI1OTUyIDAtMzQzLjk0MzE2OCAxMjcuMTI3NTUyLTM0My45NDMxNjggMjkzLjM3Mzk1MiAwIDk0LjEzMDE3NiA1MC44NjgyMjQgMTcxLjE0NTIxNiAxMzYuODU1NTUyIDIzMi4yNTM0NGwtMzUuMTMxMzkyIDEwNS4xMzIwMzIgMTIyLjMxODg0OC02Mi4zNDcyNjRjNDIuMzg1NDA4IDEyLjIzMjcwNCA3NS4wODc4NzIgMTkuNTYyNDk2IDExOS45MDAxNiAxOS41NjI0OTYgOS42ODcwNCAwIDIwLjU5NDY4OCAwIDMwLjI3OTY4LTEuMjE2NTEyLTYuMDUzODg4LTI0LjQ1MzEyLTkuNjg0OTkyLTQ3LjY4MTUzNi05LjY4NDk5Mi03My4zNDkxMiAwLTE1MC4zNTU5NjggMTI3LjE1NjIyNC0yNzUuMDM2MTYgMjkxLjg2MDQ4LTI3NS4wMzYxNnogbS0xODUuMjkyOC05MS42ODY5MTJjMjYuNjQ0NDggMCA0My41OTk4NzIgMTUuODkwNDMyIDQzLjU5OTg3MiA0Mi43ODI3MiAwIDI1LjY3NTc3Ni0xNi45NTUzOTIgNDIuNzg0NzY4LTQzLjU5OTg3MiA0Mi43ODQ3NjgtMjUuNDMyMDY0IDAtNDkuNjU3ODU2LTE3LjEwMDgtNDkuNjU3ODU2LTQyLjc4NDc2OCAwLTI2Ljg5NDMzNiAyNC4yMjU3OTItNDIuNzgyNzIgNDkuNjU3ODU2LTQyLjc4MjcyeiBtLTIzOS43OTQxNzYgODUuNTczNjMyYy0yNS40MzIwNjQgMC01Mi4wNzY1NDQtMTcuMTE1MTM2LTUyLjA3NjU0NC00Mi43OTI5NiAwLTI2Ljg5NDMzNiAyNi42NDQ0OC00Mi43ODI3MiA1Mi4wNzY1NDQtNDIuNzgyNzIgMjQuMjIzNzQ0IDAgNDMuNTk5ODcyIDE1Ljg5MDQzMiA0My41OTk4NzIgNDIuNzgyNzIgMCAyNS42Nzc4MjQtMTkuMzc2MTI4IDQyLjc5Mjk2LTQzLjU5OTg3MiA0Mi43OTI5NnoiLz48L3N2Zz4=;" vertex="1" parent="1">
          <mxGeometry x="665" y="119" width="60" height="60" as="geometry" />
        </mxCell>
        <mxCell id="H-TligfiRVoKvnowu4Hb-155" style="edgeStyle=none;orthogonalLoop=1;jettySize=auto;html=1;exitX=1;exitY=0.5;exitDx=0;exitDy=0;entryX=0;entryY=0.5;entryDx=0;entryDy=0;strokeWidth=2;startArrow=oval;startFill=1;endArrow=block;endFill=1;" edge="1" parent="1" source="H-TligfiRVoKvnowu4Hb-137" target="H-TligfiRVoKvnowu4Hb-143">
          <mxGeometry relative="1" as="geometry" />
        </mxCell>
        <mxCell id="H-TligfiRVoKvnowu4Hb-137" value="&lt;p style=&quot;margin: 0px; margin-left: 8px;&quot;&gt;&lt;br&gt;&lt;/p&gt;" style="verticalAlign=middle;align=center;overflow=fill;fontSize=12;fontFamily=Helvetica;html=1;rounded=1;fontStyle=1;strokeWidth=3;fillColor=none;strokeColor=#000000;" vertex="1" parent="1">
          <mxGeometry x="73" y="360" width="110" height="90" as="geometry" />
        </mxCell>
        <mxCell id="H-TligfiRVoKvnowu4Hb-138" value="Webhook触发" style="text;html=1;align=center;verticalAlign=middle;resizable=0;points=[];autosize=1;strokeColor=none;fillColor=none;" vertex="1" parent="1">
          <mxGeometry x="78" y="460" width="100" height="30" as="geometry" />
        </mxCell>
        <mxCell id="H-TligfiRVoKvnowu4Hb-140" value="&lt;p style=&quot;margin: 0px; margin-left: 8px;&quot;&gt;&lt;br&gt;&lt;/p&gt;" style="verticalAlign=middle;align=center;overflow=fill;fontSize=12;fontFamily=Helvetica;html=1;rounded=1;fontStyle=1;strokeWidth=3;fillColor=none;" vertex="1" parent="1">
          <mxGeometry x="640" y="360" width="110" height="90" as="geometry" />
        </mxCell>
        <mxCell id="H-TligfiRVoKvnowu4Hb-141" value="代码构建" style="text;html=1;align=center;verticalAlign=middle;resizable=0;points=[];autosize=1;strokeColor=none;fillColor=none;" vertex="1" parent="1">
          <mxGeometry x="660" y="460" width="70" height="30" as="geometry" />
        </mxCell>
        <mxCell id="H-TligfiRVoKvnowu4Hb-157" style="edgeStyle=none;orthogonalLoop=1;jettySize=auto;html=1;exitX=1;exitY=0.5;exitDx=0;exitDy=0;entryX=0;entryY=0.5;entryDx=0;entryDy=0;strokeWidth=2;startArrow=oval;startFill=1;endArrow=block;endFill=1;" edge="1" parent="1" source="H-TligfiRVoKvnowu4Hb-143" target="H-TligfiRVoKvnowu4Hb-140">
          <mxGeometry relative="1" as="geometry" />
        </mxCell>
        <mxCell id="H-TligfiRVoKvnowu4Hb-143" value="&lt;p style=&quot;margin: 0px; margin-left: 8px;&quot;&gt;&lt;br&gt;&lt;/p&gt;" style="verticalAlign=middle;align=center;overflow=fill;fontSize=12;fontFamily=Helvetica;html=1;rounded=1;fontStyle=1;strokeWidth=3;fillColor=none;" vertex="1" parent="1">
          <mxGeometry x="342" y="360" width="110" height="90" as="geometry" />
        </mxCell>
        <mxCell id="H-TligfiRVoKvnowu4Hb-144" value="&lt;p style=&quot;line-height: 100%;&quot;&gt;判断&lt;br&gt;&lt;/p&gt;" style="text;html=1;align=center;verticalAlign=middle;resizable=0;points=[];autosize=1;strokeColor=none;fillColor=none;" vertex="1" parent="1">
          <mxGeometry x="372" y="450" width="50" height="50" as="geometry" />
        </mxCell>
        <mxCell id="H-TligfiRVoKvnowu4Hb-146" value="是" style="text;html=1;align=center;verticalAlign=middle;resizable=0;points=[];autosize=1;strokeColor=none;fillColor=none;" vertex="1" parent="1">
          <mxGeometry x="444" y="375" width="40" height="30" as="geometry" />
        </mxCell>
        <mxCell id="H-TligfiRVoKvnowu4Hb-149" value="" style="shape=image;imageAspect=0;aspect=fixed;verticalLabelPosition=bottom;verticalAlign=top;strokeColor=#000000;fillColor=none;image=data:image/svg+xml,PHN2ZyB4bWxuczp4bGluaz0iaHR0cDovL3d3dy53My5vcmcvMTk5OS94bGluayIgeG1sbnM9Imh0dHA6Ly93d3cudzMub3JnLzIwMDAvc3ZnIiBoZWlnaHQ9IjIwMCIgd2lkdGg9IjIwMCIgZGF0YS1zcG0tYW5jaG9yLWlkPSJhMzEzeC43NzgxMDY5LjAuaTEiIHZlcnNpb249IjEuMSIgdmlld0JveD0iMCAwIDEwMjQgMTAyNCIgY2xhc3M9Imljb24iPjxwYXRoIGRhdGEtc3BtLWFuY2hvci1pZD0iYTMxM3guNzc4MTA2OS4wLmkwIiBkPSJNMzg0LjQyNjY2NyA1OTcuMzMzMzMzSDg1LjMzMzMzM3Y4NS4zMzMzMzRoMjk5LjA5MzMzNHYxMjhMNTU0LjY2NjY2NyA2NDBsLTE3MC4yNC0xNzAuNjY2NjY3djEyOHogbTI1NS4xNDY2NjYtNDIuNjY2NjY2di0xMjhIOTM4LjY2NjY2N1YzNDEuMzMzMzMzaC0yOTkuMDkzMzM0VjIxMy4zMzMzMzNMNDY5LjMzMzMzMyAzODRsMTcwLjI0IDE3MC42NjY2Njd6Ii8+PC9zdmc+;" vertex="1" parent="1">
          <mxGeometry x="367" y="375" width="60" height="60" as="geometry" />
        </mxCell>
        <mxCell id="H-TligfiRVoKvnowu4Hb-152" value="" style="shape=image;verticalLabelPosition=bottom;labelBackgroundColor=default;verticalAlign=top;aspect=fixed;imageAspect=0;image=data:image/svg+xml,PHN2ZyB4bWxuczp4bGluaz0iaHR0cDovL3d3dy53My5vcmcvMTk5OS94bGluayIgeG1sbnM9Imh0dHA6Ly93d3cudzMub3JnLzIwMDAvc3ZnIiBoZWlnaHQ9IjIwMCIgd2lkdGg9IjIwMCIgdmVyc2lvbj0iMS4xIiB2aWV3Qm94PSIwIDAgMTAyNCAxMDI0IiBjbGFzcz0iaWNvbiI+PHBhdGggZmlsbD0iIzAwMDAwMCIgZD0iTTUxMiA4NS4zMzMzMzNDMjc2LjI2NjY2NyA4NS4zMzMzMzMgODUuMzMzMzMzIDI3Ni4yNjY2NjcgODUuMzMzMzMzIDUxMmE0MjYuNDEwNjY3IDQyNi40MTA2NjcgMCAwIDAgMjkxLjc1NDY2NyA0MDQuODIxMzMzYzIxLjMzMzMzMyAzLjcxMiAyOS4zMTItOS4wODggMjkuMzEyLTIwLjMwOTMzMyAwLTEwLjExMi0wLjU1NDY2Ny00My42OTA2NjctMC41NTQ2NjctNzkuNDQ1MzMzLTEwNy4xNzg2NjcgMTkuNzU0NjY3LTEzNC45MTItMjYuMTEyLTE0My40NDUzMzMtNTAuMTMzMzM0LTQuODIxMzMzLTEyLjI4OC0yNS42LTUwLjEzMzMzMy00My43MzMzMzMtNjAuMjg4LTE0LjkzMzMzMy03Ljk3ODY2Ny0zNi4yNjY2NjctMjcuNzMzMzMzLTAuNTU0NjY3LTI4LjI0NTMzMyAzMy42MjEzMzMtMC41NTQ2NjcgNTcuNiAzMC45MzMzMzMgNjUuNjIxMzMzIDQzLjczMzMzMyAzOC40IDY0LjUxMiA5OS43NTQ2NjcgNDYuMzc4NjY3IDEyNC4yNDUzMzQgMzUuMiAzLjc1NDY2Ny0yNy43MzMzMzMgMTQuOTMzMzMzLTQ2LjM3ODY2NyAyNy4yMjEzMzMtNTcuMDQ1MzMzLTk0LjkzMzMzMy0xMC42NjY2NjctMTk0LjEzMzMzMy00Ny40ODgtMTk0LjEzMzMzMy0yMTAuNjg4IDAtNDYuNDIxMzMzIDE2LjUxMi04NC43Nzg2NjcgNDMuNzMzMzMzLTExNC42ODgtNC4yNjY2NjctMTAuNjY2NjY3LTE5LjItNTQuNCA0LjI2NjY2Ny0xMTMuMDY2NjY3IDAgMCAzNS43MTItMTEuMTc4NjY3IDExNy4zMzMzMzMgNDMuNzc2YTM5NS45NDY2NjcgMzk1Ljk0NjY2NyAwIDAgMSAxMDYuNjY2NjY3LTE0LjQyMTMzM2MzNi4yNjY2NjcgMCA3Mi41MzMzMzMgNC43Nzg2NjcgMTA2LjY2NjY2NiAxNC4zNzg2NjcgODEuNTc4NjY3LTU1LjQ2NjY2NyAxMTcuMzMzMzMzLTQzLjY5MDY2NyAxMTcuMzMzMzM0LTQzLjY5MDY2NyAyMy40NjY2NjcgNTguNjY2NjY3IDguNTMzMzMzIDEwMi40IDQuMjY2NjY2IDExMy4wNjY2NjcgMjcuMTc4NjY3IDI5Ljg2NjY2NyA0My43MzMzMzMgNjcuNzEyIDQzLjczMzMzNCAxMTQuNjQ1MzMzIDAgMTYzLjc1NDY2Ny05OS43MTIgMjAwLjAyMTMzMy0xOTQuNjQ1MzM0IDIxMC42ODggMTUuNDQ1MzMzIDEzLjMxMiAyOC44IDM4LjkxMiAyOC44IDc4LjkzMzMzMyAwIDU3LjA0NTMzMy0wLjU1NDY2NyAxMDIuOTEyLTAuNTU0NjY2IDExNy4zMzMzMzQgMCAxMS4xNzg2NjcgOC4wMjEzMzMgMjQuNDkwNjY3IDI5LjM1NDY2NiAyMC4yMjRBNDI3LjM0OTMzMyA0MjcuMzQ5MzMzIDAgMCAwIDkzOC42NjY2NjcgNTEyYzAtMjM1LjczMzMzMy0xOTAuOTMzMzMzLTQyNi42NjY2NjctNDI2LjY2NjY2Ny00MjYuNjY2NjY3eiIvPjwvc3ZnPg==;" vertex="1" parent="1">
          <mxGeometry x="94.49" y="373.5" width="63.01" height="63.01" as="geometry" />
        </mxCell>
        <mxCell id="H-TligfiRVoKvnowu4Hb-153" value="" style="shape=image;verticalLabelPosition=bottom;labelBackgroundColor=default;verticalAlign=top;aspect=fixed;imageAspect=0;image=data:image/svg+xml,PHN2ZyB4bWxuczp4bGluaz0iaHR0cDovL3d3dy53My5vcmcvMTk5OS94bGluayIgeG1sbnM9Imh0dHA6Ly93d3cudzMub3JnLzIwMDAvc3ZnIiBoZWlnaHQ9IjIwMCIgd2lkdGg9IjIwMCIgdmVyc2lvbj0iMS4xIiB2aWV3Qm94PSIwIDAgMTAyNCAxMDI0IiBjbGFzcz0iaWNvbiI+PHBhdGggZmlsbD0iIzMzMzMzMyIgZD0iTTkxNiAyMTBIMzc2Yy0xNy43IDAtMzIgMTQuMy0zMiAzMnYyMzZIMTA4Yy0xNy43IDAtMzIgMTQuMy0zMiAzMnYyNzJjMCAxNy43IDE0LjMgMzIgMzIgMzJoNTQwYzE3LjcgMCAzMi0xNC4zIDMyLTMyVjU0NmgyMzZjMTcuNyAwIDMyLTE0LjMgMzItMzJWMjQyYzAtMTcuNy0xNC4zLTMyLTMyLTMyek02MTIgNzQ2SDQxMlY1NDZoMjAwdjIwMHogbTI2OC0yNjhINjgwVjI3OGgyMDB2MjAweiIvPjwvc3ZnPg==;" vertex="1" parent="1">
          <mxGeometry x="665" y="375" width="60" height="60" as="geometry" />
        </mxCell>
      </root>
    </mxGraphModel>
  </diagram>
</mxfile>
